<?xml version="1.0" encoding="UTF-8" standalone="no"?>
<!DOCTYPE svg PUBLIC "-//W3C//DTD SVG 20010904//EN"
              "http://www.w3.org/TR/2001/REC-SVG-20010904/DTD/svg10.dtd">

<svg xmlns="http://www.w3.org/2000/svg"
     width="6.69444in" height="8.52778in"
     viewBox="0 0 482 614">
     <style>
    #text{
    font: italic 108px serif; fill: #ffae42;

}
  </style>
  <path id="Selection"
        fill="#ffae42" stroke="#ffae42" stroke-width="1"
        d="M 211.79,1.00
           C 218.18,4.82 215.79,13.75 209.98,16.69
             199.54,21.96 187.55,8.89 198.18,1.00
             201.47,-0.14 208.69,-0.82 211.79,1.00 Z
           M 250.91,19.43
           C 262.01,25.92 257.09,44.31 242.00,42.80
             228.07,41.41 223.62,25.33 237.01,18.82
             241.03,17.77 247.19,17.26 250.91,19.43 Z
           M 219.85,45.17
           C 223.84,47.73 223.84,53.27 219.85,55.69
             212.83,59.95 201.64,52.38 211.06,45.17
             214.10,43.99 216.89,43.51 219.85,45.17 Z
           M 161.00,63.98
           C 169.42,59.98 185.43,61.00 195.00,61.00
             195.00,61.00 262.00,61.00 262.00,61.00
             272.84,61.02 283.35,62.94 290.47,72.02
             304.33,89.67 291.36,114.07 270.00,116.00
             270.00,116.00 267.00,148.00 267.00,148.00
             266.97,166.99 266.20,189.52 270.12,208.00
             270.12,208.00 272.76,217.00 272.76,217.00
             274.88,225.59 277.20,234.06 281.27,241.99
             281.27,241.99 287.72,252.01 287.72,252.01
             287.72,252.01 311.09,290.00 311.09,290.00
             311.09,290.00 332.31,326.00 332.31,326.00
             332.31,326.00 338.13,335.00 338.13,335.00
             338.13,335.00 344.01,345.99 344.01,345.99
             344.01,345.99 349.22,354.09 349.22,354.09
             349.22,354.09 358.33,371.00 358.33,371.00
             358.33,371.00 363.74,380.00 363.74,380.00
             363.74,380.00 370.55,394.00 370.55,394.00
             370.55,394.00 378.99,411.00 378.99,411.00
             382.21,418.81 384.89,424.37 385.00,433.00
             385.00,433.00 385.00,443.00 385.00,443.00
             384.72,466.40 367.43,474.34 347.00,477.27
             341.01,478.13 335.06,478.99 329.00,479.00
             329.00,479.00 188.00,479.00 188.00,479.00
             188.00,479.00 110.00,479.00 110.00,479.00
             92.25,478.79 65.99,474.24 58.35,456.00
             55.40,448.97 55.92,440.52 56.00,433.00
             56.11,424.37 58.79,418.81 62.01,411.00
             67.69,397.22 75.23,383.89 82.67,371.00
             82.67,371.00 91.78,354.09 91.78,354.09
             91.78,354.09 96.99,345.99 96.99,345.99
             96.99,345.99 102.87,335.00 102.87,335.00
             102.87,335.00 108.69,326.00 108.69,326.00
             108.69,326.00 129.91,290.00 129.91,290.00
             129.91,290.00 153.86,251.04 153.86,251.04
             153.86,251.04 159.22,242.96 159.22,242.96
             163.91,234.37 165.98,225.31 168.49,216.00
             168.49,216.00 170.88,208.00 170.88,208.00
             175.15,187.86 174.85,149.81 172.83,129.00
             172.83,129.00 171.00,116.00 171.00,116.00
             142.22,113.40 134.91,76.40 161.00,63.98 Z
           M 166.47,87.02
           C 164.47,96.22 174.71,96.13 180.00,98.29
             184.53,100.13 187.82,103.55 189.79,108.00
             193.23,115.78 193.51,126.60 194.09,135.00
             194.09,135.00 196.00,151.00 196.00,151.00
             196.00,151.00 196.00,174.00 196.00,174.00
             195.99,182.79 194.89,183.64 194.17,191.00
             192.62,206.76 190.97,223.17 184.91,238.00
             177.17,256.94 164.63,273.70 154.01,291.04
             154.01,291.04 146.72,303.91 146.72,303.91
             146.72,303.91 134.05,325.00 134.05,325.00
             134.05,325.00 129.34,332.00 129.34,332.00
             129.34,332.00 121.66,346.00 121.66,346.00
             121.66,346.00 116.46,354.00 116.46,354.00
             116.46,354.00 110.57,365.00 110.57,365.00
             110.57,365.00 100.25,383.00 100.25,383.00
             100.25,383.00 91.26,399.04 91.26,399.04
             91.26,399.04 83.52,416.00 83.52,416.00
             81.08,421.10 78.78,424.10 77.52,430.00
             76.85,433.12 76.99,436.79 77.00,440.00
             77.02,445.02 76.96,448.90 81.13,452.44
             85.33,456.02 93.60,457.79 99.00,458.57
             104.57,459.38 110.38,459.99 116.00,460.00
             116.00,460.00 327.00,460.00 327.00,460.00
             335.94,459.89 356.99,457.83 362.15,449.91
             364.49,446.31 364.05,440.22 364.00,436.00
             363.88,426.50 361.29,423.99 357.48,416.00
             357.48,416.00 349.74,399.04 349.74,399.04
             349.74,399.04 341.25,384.00 341.25,384.00
             341.25,384.00 330.43,365.00 330.43,365.00
             330.43,365.00 324.54,354.00 324.54,354.00
             324.54,354.00 319.34,346.00 319.34,346.00
             319.34,346.00 311.66,332.00 311.66,332.00
             311.66,332.00 306.95,325.00 306.95,325.00
             306.95,325.00 294.28,303.91 294.28,303.91
             294.28,303.91 285.72,289.17 285.72,289.17
             285.72,289.17 273.99,270.04 273.99,270.04
             273.99,270.04 268.45,261.96 268.45,261.96
             263.27,253.70 256.08,239.32 253.43,230.00
             249.48,216.17 248.45,204.05 246.71,190.00
             245.80,182.59 245.01,182.42 245.00,174.00
             245.00,174.00 245.00,153.00 245.00,153.00
             245.01,144.24 246.12,143.31 246.83,136.00
             246.83,136.00 249.21,115.00 249.21,115.00
             250.63,108.32 252.67,102.79 259.00,99.23
             264.32,96.24 276.64,96.70 274.53,87.02
             273.02,80.09 264.55,80.01 259.00,80.11
             259.00,80.11 205.00,80.11 205.00,80.11
             205.00,80.11 175.00,80.11 175.00,80.11
             171.15,81.29 167.43,82.61 166.47,87.02 Z
           M 241.00,101.22
           C 233.59,103.72 225.86,93.36 236.04,88.66
             246.68,87.02 250.16,98.13 241.00,101.22 Z
           M 212.00,124.65
           C 203.41,126.39 198.95,115.50 208.04,111.58
             220.01,110.05 220.25,122.97 212.00,124.65 Z
           M 236.72,146.31
           C 241.69,151.04 239.59,160.05 231.00,160.89
             220.53,161.91 213.84,150.83 225.04,144.73
             228.92,143.79 233.56,143.30 236.72,146.31 Z
           M 224.44,200.56
           C 231.33,207.44 226.90,217.37 218.00,219.30
             203.29,222.50 195.08,202.97 212.00,197.53
             216.59,196.82 220.94,197.05 224.44,200.56 Z
           M 242.00,259.30
           C 232.36,262.48 222.17,249.59 236.00,243.65
             249.06,241.28 253.17,255.61 242.00,259.30 Z
           M 209.78,277.65
           C 215.27,282.24 214.70,293.19 205.00,296.20
             190.72,300.62 181.80,281.76 196.00,275.65
             200.56,274.71 205.96,274.47 209.78,277.65 Z
           M 281.00,315.63
           C 285.83,316.83 292.11,317.93 295.90,321.27
             299.48,324.44 304.49,335.15 307.30,339.91
             307.30,339.91 312.57,348.01 312.57,348.01
             312.57,348.01 319.01,359.99 319.01,359.99
             319.01,359.99 324.22,368.09 324.22,368.09
             324.22,368.09 331.43,382.00 331.43,382.00
             331.43,382.00 345.30,407.91 345.30,407.91
             349.76,415.75 356.06,426.94 356.81,436.00
             357.11,439.64 356.24,444.74 353.43,447.30
             351.13,449.41 347.00,450.00 344.00,450.60
             337.83,451.84 325.31,452.99 319.00,453.00
             319.00,453.00 125.00,453.00 125.00,453.00
             125.00,453.00 111.00,452.00 111.00,452.00
             99.37,451.94 82.87,451.96 84.19,436.00
             85.06,425.39 93.03,412.37 97.75,403.00
             97.75,403.00 121.67,360.00 121.67,360.00
             121.67,360.00 133.26,340.00 133.26,340.00
             139.01,331.29 144.63,315.82 155.00,312.25
             169.46,307.27 177.69,319.36 193.00,320.82
             202.52,321.73 229.81,312.88 241.00,310.46
             252.34,308.90 269.78,312.82 281.00,315.63 Z" />
                          <text x="40.60" y="600.40" fill="yellow" id="text" class="text">Facilities</text>

</svg>
