<?xml version="1.0" encoding="UTF-8" standalone="no"?>
<!DOCTYPE svg PUBLIC "-//W3C//DTD SVG 20010904//EN"
              "http://www.w3.org/TR/2001/REC-SVG-20010904/DTD/svg10.dtd">

<svg xmlns="http://www.w3.org/2000/svg"
     width="7.25in" height="8.93056in"
     viewBox="0 0 522 643">
      <style>
    #text{
    font: italic 108px serif; fill: #ffae42;

}
  </style>
  <path id="Selection"
        fill="#ffae42" stroke="#ffae42" stroke-width="1"
        d="M 301.00,30.58
           C 314.14,35.52 324.33,40.79 335.00,50.18
             391.47,99.90 387.44,191.74 326.00,235.57
             315.67,242.95 296.64,251.18 284.00,252.84
             284.00,252.84 265.00,254.92 265.00,254.92
             265.00,254.92 258.00,253.94 258.00,253.94
             258.00,253.94 250.00,253.94 250.00,253.94
             240.23,252.51 227.98,248.68 219.00,244.65
             208.91,240.12 198.95,232.63 191.00,225.03
             138.15,174.51 143.55,86.61 203.00,43.49
             207.27,40.39 210.44,39.09 215.00,36.74
             233.12,27.40 237.30,27.28 257.00,24.42
             269.92,22.85 288.87,26.01 301.00,30.58 Z
           M 43.00,197.00
           C 43.00,197.00 58.74,253.00 58.74,253.00
             58.74,253.00 71.48,298.00 71.48,298.00
             71.48,298.00 80.00,328.00 80.00,328.00
             80.00,328.00 88.17,319.42 88.17,319.42
             102.93,305.28 125.53,290.20 144.00,281.26
             144.00,281.26 159.00,274.69 159.00,274.69
             170.79,269.29 176.95,267.51 189.00,263.66
             193.55,262.20 202.56,259.02 207.00,258.51
             213.42,257.76 219.37,263.98 224.00,267.74
             224.00,267.74 253.00,290.61 253.00,290.61
             255.74,292.83 262.65,299.13 266.00,299.35
             269.78,299.59 278.86,291.50 282.00,289.00
             282.00,289.00 308.00,268.12 308.00,268.12
             310.59,266.12 317.60,260.27 320.00,259.16
             324.29,257.17 327.82,259.10 332.00,260.26
             332.00,260.26 360.00,269.27 360.00,269.27
             360.00,269.27 382.00,278.31 382.00,278.31
             418.92,295.26 454.38,320.93 472.91,358.00
             478.13,368.44 485.78,390.42 484.91,402.00
             484.67,405.14 483.95,407.07 483.00,410.00
             478.08,405.67 477.28,401.37 473.08,396.42
             464.28,386.07 453.26,379.68 440.00,377.00
             440.00,377.00 440.00,337.00 440.00,337.00
             418.85,337.02 379.73,343.65 360.00,351.06
             360.00,351.06 324.00,368.00 324.00,368.00
             324.00,368.00 325.00,405.00 325.00,405.00
             325.00,405.00 325.00,476.00 325.00,476.00
             325.00,476.00 310.00,476.00 310.00,476.00
             310.00,476.00 310.00,377.00 310.00,377.00
             310.00,374.53 310.20,371.30 308.98,369.10
             307.37,366.21 303.82,364.69 301.00,363.24
             301.00,363.24 284.00,355.00 284.00,355.00
             259.45,344.60 220.69,337.00 194.00,337.00
             194.00,337.00 194.00,470.00 194.00,470.00
             194.00,470.00 182.00,468.28 182.00,468.28
             164.21,465.76 147.33,461.48 130.00,456.88
             122.16,454.80 101.87,448.54 96.00,444.00
             110.98,440.99 117.07,438.00 128.00,427.00
             132.54,422.42 135.56,418.89 138.37,413.00
             154.75,378.69 131.44,338.18 94.00,334.17
             81.07,332.79 73.41,336.09 62.00,341.00
             62.00,341.00 55.26,318.00 55.26,318.00
             55.26,318.00 41.85,270.00 41.85,270.00
             41.85,270.00 23.00,202.00 23.00,202.00
             23.00,202.00 43.00,197.00 43.00,197.00 Z
           M 87.00,347.00
           C 95.59,346.99 101.17,347.72 109.00,351.82
             132.84,364.32 138.36,398.06 120.38,417.83
             111.90,427.16 100.36,431.14 88.00,431.00
             68.21,430.77 51.12,416.53 47.23,397.00
             46.87,393.79 46.96,389.33 47.23,386.00
             47.06,381.13 47.68,377.57 49.46,373.00
             55.34,357.97 64.29,352.23 79.00,347.55
             82.40,346.96 83.61,347.01 87.00,347.00 Z
           M 442.00,390.01
           C 478.98,400.28 484.76,450.04 452.00,468.10
             445.20,471.84 436.65,473.09 429.00,473.00
             398.94,472.64 380.52,439.63 392.35,413.00
             399.31,397.33 411.02,391.38 427.00,388.44
             432.89,387.70 436.34,388.44 442.00,390.01 Z" />
                          <text x="120.60" y="600.40" fill="yellow" id="text" class="text">Faculty</text>

</svg>
