<?xml version="1.0" encoding="UTF-8" standalone="no"?>
<!DOCTYPE svg PUBLIC "-//W3C//DTD SVG 20010904//EN"
              "http://www.w3.org/TR/2001/REC-SVG-20010904/DTD/svg10.dtd">

<svg xmlns="http://www.w3.org/2000/svg"
     width="9.1933in" height="9.69323in"
     viewBox="0 0 662 698">
      <style>
    #text{
    font: italic 128px serif; fill: #ffae42;

}
  </style>
  <path id="Selection #7"
        fill="#ffae42" stroke="#ffae42" stroke-width="1"
        d="M 81.57,563.72
           C 81.57,563.72 80.37,557.00 80.37,557.00
             78.51,550.18 76.11,546.65 76.00,539.00
             76.00,539.00 76.00,502.00 76.00,502.00
             76.00,502.00 76.00,394.00 76.00,394.00
             76.00,394.00 76.00,366.00 76.00,366.00
             76.07,355.00 79.45,358.40 78.98,347.00
             78.52,335.70 67.64,335.91 59.00,336.00
             59.00,336.00 46.00,337.00 46.00,337.00
             46.00,337.00 33.00,337.00 33.00,337.00
             25.65,336.86 26.13,334.77 20.99,330.18
             20.99,330.18 14.39,325.10 14.39,325.10
             10.30,321.41 8.09,314.36 8.00,309.00
             8.00,309.00 8.51,284.00 8.51,284.00
             8.51,284.00 11.17,278.00 11.17,278.00
             11.17,278.00 12.56,273.41 12.56,273.41
             13.61,271.39 15.77,270.63 17.74,268.77
             17.74,268.77 22.24,263.72 22.24,263.72
             27.54,258.21 27.74,259.08 32.96,255.32
             41.51,249.18 48.57,241.71 55.72,234.03
             55.72,234.03 75.09,214.48 75.09,214.48
             80.07,210.30 81.87,211.91 86.87,206.96
             86.87,206.96 100.59,192.59 100.59,192.59
             100.59,192.59 106.83,186.96 106.83,186.96
             106.83,186.96 119.00,174.05 119.00,174.05
             119.00,174.05 126.96,167.74 126.96,167.74
             126.96,167.74 132.28,162.45 132.28,162.45
             132.28,162.45 146.95,149.88 146.95,149.88
             146.95,149.88 151.71,144.71 151.71,144.71
             151.71,144.71 172.83,124.83 172.83,124.83
             172.83,124.83 181.00,116.13 181.00,116.13
             181.00,116.13 197.00,103.54 197.00,103.54
             203.93,97.83 210.77,91.51 216.87,84.91
             225.68,75.38 230.66,67.87 242.00,60.54
             242.00,60.54 248.00,57.70 248.00,57.70
             253.28,54.87 253.73,51.47 256.49,48.59
             256.49,48.59 260.88,44.81 260.88,44.81
             260.88,44.81 271.72,33.13 271.72,33.13
             271.72,33.13 277.76,27.74 277.76,27.74
             280.69,24.74 281.11,22.47 286.00,19.14
             288.65,17.34 289.37,17.45 292.00,16.34
             292.00,16.34 298.00,13.56 298.00,13.56
             300.95,12.65 315.98,12.93 320.00,13.00
             325.90,13.11 325.07,13.70 330.00,15.90
             330.00,15.90 335.91,18.16 335.91,18.16
             339.37,20.13 347.79,30.49 351.17,33.90
             351.17,33.90 356.55,38.59 356.55,38.59
             361.08,43.06 361.04,45.96 368.00,48.00
             372.32,57.11 375.88,54.02 381.39,59.34
             381.39,59.34 386.27,64.87 386.27,64.87
             386.27,64.87 392.12,70.24 392.12,70.24
             398.31,76.86 404.26,84.01 411.17,89.94
             414.72,92.99 420.77,94.45 424.85,91.40
             430.68,87.04 426.52,76.67 427.66,73.28
             428.40,71.10 431.83,68.29 433.45,66.00
             433.45,66.00 436.12,61.43 436.12,61.43
             438.19,58.64 444.07,55.19 446.99,52.75
             448.86,51.17 451.12,48.47 453.28,47.57
             455.00,46.86 458.10,47.00 460.00,47.00
             460.00,47.00 512.00,47.00 512.00,47.00
             523.12,47.02 518.41,48.91 526.01,54.35
             526.01,54.35 531.63,57.36 531.63,57.36
             531.63,57.36 540.01,65.59 540.01,65.59
             541.42,67.77 540.66,70.04 542.17,72.99
             545.86,80.17 548.98,75.71 549.00,88.00
             549.00,88.00 549.00,190.00 549.00,190.00
             548.98,200.25 546.66,200.40 547.04,208.00
             547.53,217.61 552.50,219.21 556.26,223.26
             556.26,223.26 573.55,239.71 573.55,239.71
             576.04,242.08 576.62,243.85 580.01,246.59
             580.01,246.59 596.91,259.63 596.91,259.63
             596.91,259.63 603.07,265.87 603.07,265.87
             603.07,265.87 607.92,270.43 607.92,270.43
             607.92,270.43 610.84,276.00 610.84,276.00
             615.90,284.02 617.98,279.79 618.00,291.00
             618.00,291.00 618.00,315.00 618.00,315.00
             610.08,317.71 611.58,320.39 608.16,324.28
             608.16,324.28 602.02,329.30 602.02,329.30
             594.84,335.63 598.45,336.98 588.00,337.00
             588.00,337.00 576.00,337.00 576.00,337.00
             564.12,336.86 557.57,331.54 550.06,339.06
             548.28,340.83 546.93,342.52 546.31,345.00
             544.64,351.74 548.98,356.16 549.00,367.00
             549.00,367.00 549.00,554.00 549.00,554.00
             538.47,559.04 543.19,564.54 539.26,569.55
             533.67,576.69 525.30,576.90 521.00,586.00
             521.00,586.00 416.00,586.00 416.00,586.00
             416.00,586.00 393.00,586.00 393.00,586.00
             390.63,585.96 387.42,586.04 385.60,584.26
             383.66,582.36 384.01,578.53 384.14,576.00
             384.14,576.00 384.14,411.00 384.14,411.00
             384.03,405.04 385.99,396.44 384.14,391.00
             383.46,387.61 381.38,385.46 378.98,383.00
             366.36,370.06 355.71,374.98 340.00,375.00
             340.00,375.00 280.00,375.00 280.00,375.00
             280.00,375.00 265.00,374.01 265.00,374.01
             254.71,374.25 251.27,375.68 244.00,383.00
             237.85,389.20 236.82,390.33 237.01,399.00
             237.01,399.00 238.00,413.00 238.00,413.00
             238.00,413.00 238.00,567.00 238.00,567.00
             238.00,567.00 237.00,582.00 237.00,582.00
             237.00,582.00 237.00,586.00 237.00,586.00
             237.00,586.00 102.00,586.00 102.00,586.00
             98.05,577.65 84.33,570.30 81.57,563.72 Z" />
             <text x="180.60" y="700.40" fill="yellow" id="text" class="text">Home</text>
</svg>
