<?xml version="1.0" encoding="UTF-8" standalone="no"?>
<!DOCTYPE svg PUBLIC "-//W3C//DTD SVG 20010904//EN"
              "http://www.w3.org/TR/2001/REC-SVG-20010904/DTD/svg10.dtd">

<svg xmlns="http://www.w3.org/2000/svg"
     width="8.97222in" height="10.3333in"
     viewBox="0 0 646 744">
      <style>
    #text{
    font: italic 128px serif; fill: #ffae42;

}
  </style>
  <path id="Selection"
        fill="#ffae42" stroke="#ffae42" stroke-width="1"
        d="M 324.00,24.00
           C 324.00,24.00 324.00,51.00 324.00,51.00
             324.00,51.00 324.00,143.00 324.00,143.00
             324.00,143.00 324.00,482.00 324.00,482.00
             324.01,484.92 323.52,491.37 327.95,491.37
             329.21,491.37 330.14,490.69 330.83,489.68
             332.22,487.63 332.00,483.44 332.00,481.00
             332.00,481.00 332.00,17.00 332.00,17.00
             336.94,21.07 340.76,26.30 345.08,31.00
             345.08,31.00 376.97,66.00 376.97,66.00
             376.97,66.00 389.58,80.00 389.58,80.00
             391.41,82.13 394.46,85.31 395.12,88.00
             395.78,90.70 393.74,106.23 393.28,110.00
             393.28,110.00 389.09,153.00 389.09,153.00
             389.09,153.00 386.08,186.00 386.08,186.00
             385.49,193.45 386.32,199.08 380.18,204.00
             380.18,204.00 380.18,188.13 380.18,188.13
             378.86,184.04 369.95,181.07 366.00,180.00
             366.00,180.00 363.95,198.00 363.95,198.00
             363.95,198.00 363.95,206.74 363.95,206.74
             363.95,206.74 372.00,213.00 372.00,213.00
             368.66,215.53 361.89,221.00 360.69,225.00
             360.69,225.00 362.97,248.00 362.97,248.00
             362.97,248.00 365.00,276.00 365.00,276.00
             365.00,276.00 366.00,292.00 366.00,292.00
             366.00,292.00 367.00,313.00 367.00,313.00
             364.46,313.09 361.62,312.91 360.02,315.31
             358.79,317.16 359.00,320.81 359.00,323.00
             358.99,326.95 358.37,339.99 360.02,342.79
             361.77,345.75 365.53,346.51 367.40,348.63
             369.35,350.85 368.99,354.24 369.04,357.00
             369.04,357.00 369.04,374.00 369.04,374.00
             369.04,374.00 370.00,385.00 370.00,385.00
             370.00,385.00 370.00,404.00 370.00,404.00
             370.00,404.00 371.00,421.00 371.00,421.00
             371.00,421.00 371.00,476.00 371.00,476.00
             370.99,482.88 367.01,492.24 376.00,494.47
             377.66,494.88 379.31,494.92 381.00,495.00
             381.00,495.00 381.00,465.00 381.00,465.00
             381.00,465.00 380.00,449.00 380.00,449.00
             380.00,449.00 380.00,423.00 380.00,423.00
             380.00,423.00 379.00,408.00 379.00,408.00
             379.00,408.00 379.00,387.00 379.00,387.00
             379.00,387.00 378.00,371.00 378.00,371.00
             378.00,371.00 378.00,356.00 378.00,356.00
             378.00,356.00 377.04,345.00 377.04,345.00
             377.04,345.00 377.04,334.00 377.04,334.00
             377.04,334.00 376.00,320.00 376.00,320.00
             376.00,320.00 375.00,290.00 375.00,290.00
             375.00,290.00 374.09,280.00 374.09,280.00
             374.09,280.00 371.92,248.00 371.92,248.00
             371.92,248.00 370.60,230.00 370.60,230.00
             370.60,230.00 384.99,215.07 384.99,215.07
             384.99,215.07 423.00,181.00 423.00,181.00
             423.00,181.00 423.00,428.00 423.00,428.00
             423.00,428.00 423.00,483.00 423.00,483.00
             423.00,486.99 422.11,498.74 424.60,501.44
             426.32,503.32 430.57,504.36 433.00,505.00
             433.00,505.00 433.00,276.00 433.00,276.00
             433.00,276.00 433.00,210.00 433.00,210.00
             433.00,203.62 432.07,184.87 434.00,180.00
             434.00,180.00 465.05,216.00 465.05,216.00
             467.88,219.19 477.70,229.81 478.64,233.00
             479.80,235.65 478.85,239.26 478.64,242.00
             478.64,242.00 476.07,260.00 476.07,260.00
             476.07,260.00 472.00,309.00 472.00,309.00
             472.00,309.00 471.00,332.00 471.00,332.00
             471.00,332.00 470.00,347.00 470.00,347.00
             470.00,347.00 470.00,362.00 470.00,362.00
             470.00,362.00 469.00,378.00 469.00,378.00
             469.00,378.00 469.00,408.00 469.00,408.00
             469.00,408.00 468.00,425.00 468.00,425.00
             468.00,425.00 468.00,509.00 468.00,509.00
             468.02,520.05 469.81,517.85 484.00,525.49
             484.00,525.49 501.91,537.19 501.91,537.19
             522.37,552.32 541.25,575.79 547.00,601.00
             547.00,601.00 103.00,601.00 103.00,601.00
             108.53,576.76 133.29,550.34 152.99,536.21
             159.67,531.41 166.77,527.11 174.00,523.18
             176.87,521.62 182.32,519.39 183.98,516.67
             185.22,514.64 185.00,511.34 185.00,509.00
             185.00,509.00 185.00,493.00 185.00,493.00
             185.00,493.00 184.00,477.00 184.00,477.00
             184.00,477.00 182.00,403.00 182.00,403.00
             182.00,403.00 181.00,389.00 181.00,389.00
             181.00,389.00 180.00,356.00 180.00,356.00
             180.00,356.00 179.04,346.00 179.04,346.00
             179.04,346.00 179.04,337.00 179.04,337.00
             179.04,337.00 178.00,320.00 178.00,320.00
             178.00,320.00 176.17,296.00 176.17,296.00
             176.17,296.00 174.91,273.00 174.91,273.00
             174.91,273.00 168.85,214.00 168.85,214.00
             168.85,214.00 165.77,191.00 165.77,191.00
             166.78,187.28 177.96,176.91 181.35,173.40
             181.35,173.40 221.00,133.00 221.00,133.00
             221.00,133.00 221.00,385.00 221.00,385.00
             221.00,385.00 221.00,464.00 221.00,464.00
             221.00,464.00 222.00,504.00 222.00,504.00
             224.35,503.19 227.75,502.48 229.40,500.57
             231.93,497.63 231.00,484.33 231.00,480.00
             231.00,480.00 231.00,415.00 231.00,415.00
             231.00,415.00 231.00,134.00 231.00,134.00
             231.00,134.00 274.00,177.00 274.00,177.00
             278.40,181.42 287.30,188.39 286.70,195.01
             286.70,195.01 283.43,216.00 283.43,216.00
             283.43,216.00 280.16,243.00 280.16,243.00
             280.16,243.00 272.00,339.00 272.00,339.00
             272.00,339.00 272.00,348.00 272.00,348.00
             272.00,348.00 269.00,396.00 269.00,396.00
             269.00,396.00 268.00,406.00 268.00,406.00
             268.00,406.00 268.00,415.00 268.00,415.00
             268.00,415.00 267.00,429.00 267.00,429.00
             267.00,429.00 266.00,451.00 266.00,451.00
             266.00,451.00 265.00,468.00 265.00,468.00
             264.99,474.13 264.55,488.53 263.00,494.00
             269.47,495.57 270.67,494.83 277.00,494.00
             277.00,494.00 277.00,456.00 277.00,456.00
             277.00,456.00 276.00,441.00 276.00,441.00
             276.00,441.00 276.00,425.00 276.00,425.00
             276.00,425.00 275.00,411.00 275.00,411.00
             275.00,411.00 276.09,379.00 276.09,379.00
             276.09,379.00 277.00,366.00 277.00,366.00
             277.00,366.00 278.91,339.00 278.91,339.00
             278.91,339.00 281.91,298.00 281.91,298.00
             281.91,298.00 284.00,278.00 284.00,278.00
             284.00,278.00 284.00,292.00 284.00,292.00
             284.02,294.99 283.70,299.09 287.15,300.36
             289.45,301.21 294.36,299.47 297.00,299.00
             297.00,299.00 296.00,283.00 296.00,283.00
             296.00,283.00 295.00,267.00 295.00,267.00
             295.00,267.00 284.00,276.00 284.00,276.00
             284.00,276.00 290.28,214.00 290.28,214.00
             290.28,214.00 293.25,196.00 293.25,196.00
             293.25,196.00 294.12,187.00 294.12,187.00
             294.12,187.00 279.00,169.00 279.00,169.00
             279.00,169.00 289.02,159.91 289.02,159.91
             289.02,159.91 290.00,135.00 290.00,135.00
             285.10,136.55 274.94,140.79 273.43,146.04
             271.98,151.09 274.20,157.45 272.00,163.00
             268.23,157.73 260.37,151.22 258.31,147.00
             257.00,144.31 256.22,131.77 255.92,128.00
             255.92,128.00 252.17,92.00 252.17,92.00
             251.47,82.86 263.72,73.50 269.54,67.28
             269.54,67.28 307.09,27.00 307.09,27.00
             307.09,27.00 323.00,10.00 323.00,10.00
             324.64,14.12 324.00,19.56 324.00,24.00 Z
           M 300.17,76.38
           C 298.97,78.31 299.03,80.80 299.00,83.00
             298.91,89.87 298.28,103.96 300.00,110.00
             300.00,110.00 315.01,101.47 315.01,101.47
             315.01,101.47 316.00,94.00 316.00,94.00
             316.00,94.00 316.00,67.00 316.00,67.00
             312.02,68.16 302.35,72.90 300.17,76.38 Z
           M 358.00,85.00
           C 357.96,82.98 358.00,81.00 356.98,79.17
             354.98,75.60 344.99,68.38 341.00,67.00
             341.00,67.00 341.00,94.00 341.00,94.00
             341.04,95.98 340.99,97.93 342.02,99.70
             344.04,103.17 354.01,109.92 358.00,111.00
             358.00,111.00 358.00,85.00 358.00,85.00 Z
           M 387.84,101.04
           C 387.12,95.85 374.76,89.39 370.00,88.00
             370.00,88.00 368.98,98.00 368.98,98.00
             368.98,98.00 368.98,109.00 368.98,109.00
             368.54,112.09 367.35,115.92 368.98,118.79
             371.01,122.18 382.08,126.88 386.00,128.00
             386.00,128.00 387.84,101.04 387.84,101.04 Z
           M 269.83,100.32
           C 268.72,102.46 269.69,106.69 269.83,109.00
             269.83,109.00 274.00,128.00 274.00,128.00
             274.00,128.00 290.00,120.00 290.00,120.00
             290.00,120.00 286.00,89.00 286.00,89.00
             282.03,90.07 271.15,96.50 269.83,100.32 Z
           M 302.17,123.37
           C 302.17,123.37 301.00,131.00 301.00,131.00
             301.00,131.00 301.00,157.00 301.00,157.00
             304.62,155.96 312.98,151.79 314.98,148.61
             316.22,146.63 316.00,143.30 316.00,141.00
             316.00,141.00 316.00,113.00 316.00,113.00
             316.00,113.00 302.17,123.37 302.17,123.37 Z
           M 341.00,139.00
           C 341.00,141.19 340.75,144.54 341.99,146.39
             343.93,149.27 351.64,153.10 355.00,154.00
             355.00,154.00 355.00,130.00 355.00,130.00
             355.00,130.00 353.98,122.30 353.98,122.30
             353.98,122.30 342.00,113.00 342.00,113.00
             340.15,117.67 340.99,133.13 341.00,139.00 Z
           M 383.93,149.00
           C 384.12,146.80 384.86,142.18 383.93,140.38
             382.39,137.60 372.18,132.42 369.00,131.00
             369.00,131.00 366.99,151.00 366.99,151.00
             366.99,151.00 366.99,164.53 366.99,164.53
             366.99,164.53 381.00,173.00 381.00,173.00
             381.00,173.00 383.93,149.00 383.93,149.00 Z
           M 303.02,168.10
           C 301.90,170.14 302.02,172.74 302.00,175.00
             301.95,181.88 301.27,194.90 303.00,201.00
             306.17,200.10 313.23,197.55 314.98,194.73
             316.21,192.74 316.00,189.30 316.00,187.00
             316.00,187.00 316.00,160.00 316.00,160.00
             312.16,161.21 305.01,164.51 303.02,168.10 Z
           M 355.00,181.00
           C 355.00,178.50 355.23,173.18 354.40,171.04
             352.71,166.64 345.34,161.48 341.00,160.00
             341.00,160.00 341.00,181.00 341.00,181.00
             341.00,183.53 340.74,189.74 341.60,191.83
             343.26,195.85 350.99,200.64 355.00,202.00
             355.00,202.00 355.00,181.00 355.00,181.00 Z
           M 241.00,189.00
           C 241.00,189.00 241.00,205.00 241.00,205.00
             241.00,205.00 253.00,207.00 253.00,207.00
             253.00,207.00 252.00,191.00 252.00,191.00
             252.00,191.00 250.98,183.38 250.98,183.38
             250.98,183.38 242.00,177.00 242.00,177.00
             242.00,177.00 241.00,189.00 241.00,189.00 Z
           M 263.00,211.00
           C 263.01,212.87 262.83,215.74 263.99,217.30
             265.33,219.09 273.57,222.10 276.00,223.00
             277.01,218.88 279.81,204.52 277.97,201.17
             276.26,198.04 268.26,192.87 265.00,191.00
             262.68,196.68 262.96,204.87 263.00,211.00 Z
           M 354.00,226.00
           C 354.00,223.58 354.26,217.26 353.43,215.30
             351.56,210.92 344.59,206.67 340.00,207.00
             340.00,207.00 341.00,231.00 341.00,231.00
             341.00,231.00 342.02,238.63 342.02,238.63
             342.02,238.63 354.00,247.00 354.00,247.00
             354.00,247.00 354.00,226.00 354.00,226.00 Z
           M 303.17,215.32
           C 301.97,217.33 302.03,219.75 302.00,222.00
             301.91,228.87 301.28,242.96 303.00,249.00
             303.00,249.00 315.01,241.47 315.01,241.47
             315.01,241.47 316.00,234.00 316.00,234.00
             316.00,234.00 316.00,207.00 316.00,207.00
             312.16,208.22 305.29,211.80 303.17,215.32 Z
           M 241.00,240.00
           C 241.00,240.00 253.00,242.00 253.00,242.00
             253.00,242.00 252.15,221.10 252.15,221.10
             251.53,217.17 245.17,214.32 242.00,212.00
             242.00,212.00 241.00,240.00 241.00,240.00 Z
           M 448.43,226.30
           C 446.95,222.84 441.49,219.92 438.00,219.00
             438.00,219.00 438.99,241.37 438.99,241.37
             438.99,241.37 449.00,247.00 449.00,247.00
             449.00,243.42 449.43,228.64 448.43,226.30 Z
           M 263.00,248.47
           C 264.57,250.91 270.32,253.71 273.00,255.00
             273.00,255.00 274.14,239.00 274.14,239.00
             274.14,239.00 274.14,231.70 274.14,231.70
             274.14,231.70 263.00,227.00 263.00,227.00
             261.68,230.33 261.13,245.59 263.00,248.47 Z
           M 457.00,243.00
           C 457.00,244.95 456.88,248.06 457.60,249.83
             459.32,254.03 466.78,258.80 471.00,260.00
             471.00,260.00 469.98,241.17 469.98,241.17
             469.98,241.17 458.00,232.00 458.00,232.00
             456.59,235.56 456.99,239.20 457.00,243.00 Z
           M 241.00,269.00
           C 241.00,269.00 242.02,274.44 242.02,274.44
             242.02,274.44 252.00,279.00 252.00,279.00
             252.00,279.00 251.07,254.33 251.07,254.33
             251.07,254.33 242.00,247.00 242.00,247.00
             242.00,247.00 241.00,269.00 241.00,269.00 Z
           M 449.00,261.00
           C 448.95,252.84 446.00,249.91 438.00,248.00
             438.00,252.13 437.28,266.84 439.02,269.66
             440.87,272.66 445.78,274.12 449.00,275.00
             449.00,275.00 449.00,261.00 449.00,261.00 Z
           M 341.00,266.00
           C 341.00,275.79 338.90,282.39 345.93,289.98
             348.19,292.43 349.08,293.41 352.00,295.00
             352.00,295.00 352.00,274.00 352.00,274.00
             352.00,274.00 351.40,263.00 351.40,263.00
             351.40,263.00 342.00,252.00 342.00,252.00
             340.36,256.12 341.00,261.56 341.00,266.00 Z
           M 304.17,262.29
           C 302.98,264.37 303.04,266.68 303.00,269.00
             302.91,275.62 302.45,289.10 304.00,295.00
             307.11,294.02 313.20,291.42 314.98,288.61
             316.22,286.65 316.00,283.28 316.00,281.00
             316.00,281.00 316.00,253.00 316.00,253.00
             312.37,254.87 306.22,258.73 304.17,262.29 Z
           M 270.99,265.33
           C 269.23,262.44 264.04,260.32 261.00,259.00
             261.00,259.00 259.16,281.00 259.16,281.00
             259.90,286.62 266.18,289.48 270.99,291.00
             271.00,285.68 273.06,268.75 270.99,265.33 Z
           M 467.43,269.37
           C 465.87,265.93 458.51,262.12 455.00,261.00
             455.00,261.00 455.57,278.71 455.57,278.71
             455.57,278.71 460.02,283.60 460.02,283.60
             460.02,283.60 468.00,288.00 468.00,288.00
             468.00,284.75 468.39,271.51 467.43,269.37 Z
           M 439.00,298.47
           C 440.85,301.33 445.86,303.10 449.00,304.00
             449.00,304.00 448.01,282.52 448.01,282.52
             448.01,282.52 439.00,276.00 439.00,276.00
             437.67,279.35 437.12,295.59 439.00,298.47 Z
           M 241.00,296.00
           C 241.00,305.20 239.45,315.21 253.00,312.00
             253.00,312.00 251.19,289.21 251.19,289.21
             251.19,289.21 242.00,283.00 242.00,283.00
             240.40,287.03 241.00,291.72 241.00,296.00 Z
           M 467.43,298.30
           C 465.78,294.45 458.84,291.03 455.00,290.00
             455.00,302.96 451.67,313.58 468.00,317.00
             468.00,313.67 468.38,300.53 467.43,298.30 Z
           M 259.00,295.00
           C 257.83,299.11 256.79,314.33 259.60,317.49
             261.18,319.28 264.76,320.24 267.00,321.00
             267.00,321.00 269.00,298.00 269.00,298.00
             269.00,298.00 259.00,295.00 259.00,295.00 Z
           M 341.00,313.00
           C 341.00,325.56 338.33,334.54 352.00,341.00
             352.00,341.00 352.00,320.00 352.00,320.00
             352.00,320.00 351.40,309.00 351.40,309.00
             351.40,309.00 342.00,298.00 342.00,298.00
             340.36,302.13 341.00,308.46 341.00,313.00 Z
           M 306.00,328.00
           C 305.93,334.24 304.80,335.46 306.00,342.00
             306.00,342.00 314.98,334.91 314.98,334.91
             314.98,334.91 316.00,327.00 316.00,327.00
             316.00,327.00 316.00,300.00 316.00,300.00
             301.50,307.78 306.15,314.72 306.00,328.00 Z
           M 449.00,325.00
           C 449.06,314.39 450.46,308.38 438.00,305.00
             438.00,305.00 439.02,326.67 439.02,326.67
             439.02,326.67 448.00,333.00 448.00,333.00
             448.95,329.64 448.98,328.45 449.00,325.00 Z
           M 290.02,315.39
           C 290.02,315.39 289.00,322.00 289.00,322.00
             289.00,322.00 289.00,343.00 289.00,343.00
             289.00,343.00 299.00,342.00 299.00,342.00
             299.00,342.00 297.00,312.00 297.00,312.00
             297.00,312.00 290.02,315.39 290.02,315.39 Z
           M 241.00,338.00
           C 241.01,340.02 240.87,342.85 242.02,344.58
             243.76,347.20 249.08,348.33 252.01,349.00
             252.01,349.00 252.01,337.00 252.01,337.00
             252.08,333.43 253.00,327.44 250.99,324.39
             249.72,322.46 244.21,319.44 242.00,318.00
             240.24,322.43 240.97,332.83 241.00,338.00 Z
           M 455.00,331.00
           C 455.02,339.99 456.87,341.71 465.00,346.00
             465.00,346.00 464.01,325.53 464.01,325.53
             464.01,325.53 456.00,320.00 456.00,320.00
             454.59,323.56 454.99,327.20 455.00,331.00 Z
           M 256.00,329.00
           C 256.00,329.00 256.00,347.00 256.00,347.00
             256.00,347.00 257.60,353.15 257.60,353.15
             257.60,353.15 267.00,355.00 267.00,355.00
             267.00,355.00 267.00,329.00 267.00,329.00
             267.00,329.00 256.00,329.00 256.00,329.00 Z
           M 449.00,347.00
           C 448.94,338.70 446.14,335.94 438.00,334.00
             438.00,337.95 437.31,352.88 438.99,355.47
             440.85,358.33 445.86,360.10 449.00,361.00
             449.00,361.00 449.00,347.00 449.00,347.00 Z
           M 341.00,377.00
           C 341.00,379.30 340.79,382.74 342.02,384.73
             343.66,387.36 347.22,388.24 350.00,389.00
             350.00,389.00 350.00,363.00 350.00,363.00
             350.00,363.00 348.98,351.04 348.98,351.04
             348.98,351.04 342.00,344.00 342.00,344.00
             340.13,348.72 340.99,370.48 341.00,377.00 Z
           M 307.02,355.00
           C 305.55,357.94 306.09,362.68 305.98,366.00
             305.69,373.13 304.40,382.11 305.98,389.00
             305.98,389.00 314.98,381.83 314.98,381.83
             314.98,381.83 316.00,374.00 316.00,374.00
             316.00,374.00 316.00,347.00 316.00,347.00
             312.39,348.71 308.87,351.31 307.02,355.00 Z
           M 455.00,351.00
           C 455.00,351.00 455.00,362.00 455.00,362.00
             455.01,369.60 455.77,372.27 464.00,374.00
             464.00,357.10 466.44,353.15 455.00,351.00 Z
           M 251.43,360.39
           C 249.71,356.68 243.70,354.70 240.00,355.00
             240.00,355.00 241.00,381.00 241.00,381.00
             241.00,381.00 252.00,384.00 252.00,384.00
             252.00,380.25 252.45,362.60 251.43,360.39 Z
           M 288.93,360.13
           C 288.93,360.13 288.93,391.00 288.93,391.00
             291.73,390.87 296.19,390.70 298.01,388.30
             299.17,386.76 298.99,383.86 299.00,382.00
             299.00,382.00 299.00,355.00 299.00,355.00
             295.61,355.35 289.53,355.98 288.93,360.13 Z
           M 366.40,389.94
           C 368.37,388.55 368.00,384.16 368.00,382.00
             368.01,377.56 369.07,362.41 366.40,359.56
             364.42,357.44 360.70,357.23 358.00,357.00
             358.00,357.00 358.00,389.00 358.00,389.00
             360.18,389.56 364.44,391.31 366.40,389.94 Z
           M 255.83,361.99
           C 255.83,361.99 254.72,375.00 254.72,375.00
             254.72,375.00 255.64,382.98 255.64,382.98
             255.64,382.98 263.00,384.00 263.00,384.00
             263.00,384.00 263.00,361.00 263.00,361.00
             263.00,361.00 255.83,361.99 255.83,361.99 Z
           M 438.00,379.00
           C 438.00,379.00 438.99,384.45 438.99,384.45
             438.99,384.45 448.00,390.00 448.00,390.00
             449.07,386.22 449.97,371.66 448.00,368.47
             446.41,365.87 441.68,363.44 439.00,362.00
             439.00,362.00 438.00,379.00 438.00,379.00 Z
           M 456.80,400.62
           C 458.41,402.90 461.37,404.03 464.00,405.00
             464.00,405.00 462.98,385.41 462.98,385.41
             462.98,385.41 456.80,381.00 456.80,381.00
             454.35,384.60 453.71,396.98 456.80,400.62 Z
           M 241.00,409.00
           C 241.00,409.00 241.99,415.28 241.99,415.28
             241.99,415.28 252.00,420.00 252.00,420.00
             252.00,420.00 252.00,403.00 252.00,403.00
             252.00,403.00 251.02,394.68 251.02,394.68
             251.02,394.68 242.00,389.00 242.00,389.00
             242.00,389.00 241.00,409.00 241.00,409.00 Z
           M 449.00,411.00
           C 449.06,400.24 450.64,394.40 438.00,391.00
             438.00,391.00 439.02,412.67 439.02,412.67
             439.02,412.67 448.00,419.00 448.00,419.00
             448.95,415.64 448.98,414.45 449.00,411.00 Z
           M 306.00,419.00
           C 305.92,426.03 304.55,427.67 306.00,435.00
             306.00,435.00 314.83,428.63 314.83,428.63
             314.83,428.63 316.00,421.00 316.00,421.00
             316.00,421.00 316.00,394.00 316.00,394.00
             301.99,398.66 306.13,407.45 306.00,419.00 Z
           M 254.88,396.00
           C 254.88,396.00 254.88,411.91 254.88,411.91
             254.55,414.11 253.73,417.39 255.76,419.02
             257.31,420.26 261.06,419.99 263.00,420.00
             263.00,420.00 263.00,396.00 263.00,396.00
             263.00,396.00 254.88,396.00 254.88,396.00 Z
           M 341.00,424.00
           C 341.00,424.00 341.99,430.39 341.99,430.39
             341.99,430.39 350.00,435.00 350.00,435.00
             350.00,435.00 350.00,410.00 350.00,410.00
             350.00,410.00 348.98,402.49 348.98,402.49
             348.98,402.49 342.00,398.00 342.00,398.00
             342.00,398.00 341.00,424.00 341.00,424.00 Z
           M 357.00,424.00
           C 357.00,424.00 357.99,430.39 357.99,430.39
             357.99,430.39 366.00,435.00 366.00,435.00
             366.00,435.00 366.00,410.00 366.00,410.00
             366.00,410.00 364.98,402.49 364.98,402.49
             364.98,402.49 358.00,398.00 358.00,398.00
             358.00,398.00 357.00,424.00 357.00,424.00 Z
           M 290.00,402.00
           C 290.00,402.00 290.00,426.00 290.00,426.00
             290.06,428.74 289.85,431.84 293.14,432.67
             298.89,434.11 298.97,428.95 299.00,425.00
             299.00,425.00 299.00,402.00 299.00,402.00
             299.00,402.00 290.00,402.00 290.00,402.00 Z
           M 455.00,412.00
           C 455.00,423.29 451.74,431.23 464.00,436.00
             464.00,436.00 464.00,415.00 464.00,415.00
             464.00,415.00 455.00,412.00 455.00,412.00 Z
           M 439.00,441.47
           C 440.85,444.33 445.86,446.10 449.00,447.00
             449.00,447.00 448.01,425.53 448.01,425.53
             448.01,425.53 439.00,419.00 439.00,419.00
             437.67,422.35 437.12,438.59 439.00,441.47 Z
           M 241.00,444.00
           C 241.00,444.00 242.02,450.49 242.02,450.49
             242.02,450.49 252.00,455.00 252.00,455.00
             252.00,455.00 252.00,437.00 252.00,437.00
             252.00,437.00 250.98,430.33 250.98,430.33
             250.98,430.33 242.00,424.00 242.00,424.00
             242.00,424.00 241.00,444.00 241.00,444.00 Z
           M 263.00,438.00
           C 262.96,436.06 263.10,433.36 261.40,432.02
             259.71,430.69 255.48,430.41 254.93,434.13
             254.37,437.03 254.48,451.73 254.93,455.00
             254.93,455.00 263.00,455.00 263.00,455.00
             263.00,455.00 263.00,438.00 263.00,438.00 Z
           M 455.00,443.00
           C 455.00,443.00 455.00,454.00 455.00,454.00
             455.05,462.08 456.97,463.27 465.00,464.00
             465.00,464.00 465.00,444.00 465.00,444.00
             465.00,444.00 455.00,443.00 455.00,443.00 Z
           M 438.00,448.00
           C 438.00,448.00 438.00,471.00 438.00,471.00
             438.00,471.00 449.00,475.00 449.00,475.00
             449.00,462.76 452.58,451.96 438.00,448.00 Z" />
                          <text x="50.60" y="720.40" fill="yellow" id="text" class="text">Placements</text>

</svg>
