<?xml version="1.0" encoding="UTF-8" standalone="no"?>
<!DOCTYPE svg PUBLIC "-//W3C//DTD SVG 20010904//EN"
              "http://www.w3.org/TR/2001/REC-SVG-20010904/DTD/svg10.dtd">

<svg xmlns="http://www.w3.org/2000/svg"
     width="5.625in" height="8.05556in"
     viewBox="0 0 405 580">
      <style>
    #text{
    font: italic 108px serif; fill: #ffae42;

}
  </style>
  <path id="Selection"
        fill="#ffae42" stroke="#ffae42" stroke-width="1"
        d="M 199.00,8.22
           C 199.00,8.22 229.00,11.73 229.00,11.73
             239.37,13.26 254.48,15.40 264.00,19.52
             274.73,24.17 290.91,35.43 300.00,42.92
             305.37,47.35 312.23,51.99 316.83,57.01
             333.84,75.60 343.42,100.91 343.99,126.00
             344.09,130.56 342.65,146.89 341.38,151.00
             341.38,151.00 335.26,164.00 335.26,164.00
             335.26,164.00 329.05,177.00 329.05,177.00
             321.72,188.69 297.64,213.26 287.00,222.83
             287.00,222.83 271.00,236.17 271.00,236.17
             271.00,236.17 238.04,269.00 238.04,269.00
             233.61,273.65 227.47,282.88 225.47,289.00
             225.47,289.00 222.63,301.00 222.63,301.00
             222.63,301.00 218.00,317.00 218.00,317.00
             216.97,320.57 215.48,327.00 213.30,329.79
             210.88,332.90 200.89,338.77 197.00,339.90
             186.76,342.86 181.47,341.53 172.00,337.81
             168.98,336.63 166.75,336.01 164.30,333.73
             159.32,329.08 156.12,322.34 154.00,316.00
             153.20,313.61 151.64,309.35 151.41,307.00
             151.41,307.00 152.85,293.00 152.85,293.00
             154.06,282.86 153.87,280.88 154.00,271.00
             154.15,260.18 163.33,247.46 169.63,239.00
             187.87,214.49 212.51,195.49 234.00,174.00
             243.32,164.68 259.80,150.07 260.13,136.00
             260.13,136.00 260.13,120.00 260.13,120.00
             260.13,120.00 260.13,108.00 260.13,108.00
             259.57,105.01 253.83,97.96 251.71,95.00
             246.47,87.68 240.67,80.61 233.00,75.68
             226.61,71.58 209.70,68.08 202.00,68.08
             202.00,68.08 186.00,69.72 186.00,69.72
             178.50,70.64 166.35,71.48 160.00,75.70
             155.80,78.49 152.35,83.31 148.91,87.00
             140.91,95.59 133.25,105.08 128.52,116.00
             128.52,116.00 125.25,127.00 125.25,127.00
             123.18,133.32 116.85,146.59 113.10,152.00
             102.87,166.76 93.62,167.30 77.00,167.00
             69.79,166.87 67.54,164.09 62.00,159.87
             48.20,149.36 45.03,143.17 45.00,126.00
             44.97,108.02 50.82,96.27 59.58,81.00
             62.12,76.56 67.02,67.55 70.21,64.09
             70.21,64.09 80.00,55.71 80.00,55.71
             80.00,55.71 92.00,44.38 92.00,44.38
             92.00,44.38 107.00,34.92 107.00,34.92
             107.00,34.92 128.00,19.79 128.00,19.79
             142.03,13.47 160.81,10.91 176.00,8.22
             176.00,8.22 199.00,8.22 199.00,8.22 Z
           M 196.00,373.00
           C 215.31,373.03 232.88,391.88 233.00,411.00
             233.05,419.27 233.35,423.56 230.32,431.56
             224.13,447.96 206.18,457.88 189.00,456.91
             182.85,456.56 175.71,455.38 170.17,452.60
             157.81,446.41 148.19,432.99 148.00,419.00
             148.00,419.00 148.00,410.00 148.00,410.00
             148.08,405.11 150.39,397.74 152.77,393.41
             157.86,384.13 167.74,377.38 177.43,373.68
             182.38,372.49 190.65,372.99 196.00,373.00 Z" />
             <text x="0.60" y="580.40" fill="yellow" id="text" class="text">About Us</text>
</svg>
