<?xml version="1.0" encoding="UTF-8" standalone="no"?>
<!DOCTYPE svg PUBLIC "-//W3C//DTD SVG 20010904//EN"
              "http://www.w3.org/TR/2001/REC-SVG-20010904/DTD/svg10.dtd">

<svg xmlns="http://www.w3.org/2000/svg"
     width="8.26389in" height="10.125in"
     viewBox="0 0 595 729">
     <style>
    #text{
    font: italic 128px serif; fill: #ffae42;

}
  </style>
  <path id="Selection"
        fill="#ffae42" stroke="#ffae42" stroke-width="1"
        d="M 342.00,15.72
           C 346.39,16.76 350.59,17.41 354.56,19.90
             361.46,24.22 370.39,37.00 372.46,45.09
             373.24,48.13 373.01,55.52 373.00,59.00
             372.97,79.54 354.37,107.85 332.00,108.00
             332.00,108.00 326.00,108.00 326.00,108.00
             315.28,107.80 302.81,97.03 297.80,88.00
             294.95,82.85 294.94,81.16 293.38,76.00
             291.73,70.49 291.09,71.41 291.00,65.00
             291.00,65.00 291.00,58.00 291.00,58.00
             291.10,51.25 291.86,52.59 293.53,47.00
             296.66,36.48 301.53,27.16 311.04,21.03
             319.13,15.81 321.73,16.69 330.00,13.75
             336.89,12.25 336.17,14.33 342.00,15.72 Z
           M 165.00,246.46
           C 162.72,247.12 159.41,247.04 157.00,247.00
             145.11,246.79 138.59,236.04 139.02,225.00
             139.34,216.73 151.78,194.58 156.01,185.83
             156.01,185.83 172.20,153.91 172.20,153.91
             175.40,147.60 178.05,139.86 183.63,135.25
             192.10,128.27 200.32,128.71 210.00,126.83
             210.00,126.83 220.00,123.90 220.00,123.90
             220.00,123.90 231.00,123.90 231.00,123.90
             231.00,123.90 240.00,121.37 240.00,121.37
             243.69,120.67 247.19,121.31 253.00,119.82
             253.00,119.82 261.00,117.22 261.00,117.22
             261.00,117.22 273.00,116.68 273.00,116.68
             277.40,115.94 279.99,114.09 285.00,114.08
             290.23,114.06 292.65,115.79 297.00,116.63
             297.00,116.63 304.91,117.31 304.91,117.31
             307.63,117.99 308.61,119.51 311.09,120.42
             311.09,120.42 316.00,121.54 316.00,121.54
             316.00,121.54 326.00,125.77 326.00,125.77
             341.01,133.04 362.46,153.18 373.37,166.16
             373.37,166.16 385.34,179.28 385.34,179.28
             387.02,181.10 389.22,184.34 391.94,184.38
             394.41,184.41 396.34,181.51 397.60,179.71
             397.60,179.71 407.96,162.00 407.96,162.00
             407.96,162.00 424.41,135.71 424.41,135.71
             428.79,128.63 432.60,118.69 440.83,115.03
             443.40,113.89 449.12,113.91 451.99,114.02
             459.90,114.31 462.59,119.51 468.00,124.00
             467.80,130.91 469.55,133.13 469.34,137.00
             469.34,137.00 468.21,143.00 468.21,143.00
             468.21,143.00 467.53,148.72 467.53,148.72
             465.47,155.79 455.60,170.25 451.42,177.00
             451.42,177.00 425.24,221.03 425.24,221.03
             416.81,234.12 413.39,249.53 394.00,246.86
             388.53,246.11 384.35,242.14 379.91,239.25
             379.91,239.25 348.96,218.80 348.96,218.80
             345.31,216.49 336.11,208.97 332.05,210.08
             328.69,210.99 328.05,214.27 326.68,217.00
             326.68,217.00 316.74,236.00 316.74,236.00
             316.74,236.00 305.19,258.99 305.19,258.99
             305.19,258.99 300.44,267.09 300.44,267.09
             300.44,267.09 290.16,288.00 290.16,288.00
             290.16,288.00 279.42,309.00 279.42,309.00
             279.42,309.00 274.84,318.09 274.84,318.09
             274.25,321.43 277.00,324.24 279.00,326.58
             279.00,326.58 293.73,343.00 293.73,343.00
             293.73,343.00 331.37,385.85 331.37,385.85
             331.37,385.85 338.54,394.39 338.54,394.39
             338.54,394.39 340.60,399.29 340.60,399.29
             343.68,406.04 345.89,406.89 346.00,415.00
             346.00,415.00 346.00,431.00 346.00,431.00
             345.98,441.25 340.04,450.20 335.28,459.00
             335.28,459.00 320.84,488.00 320.84,488.00
             320.84,488.00 300.49,529.00 300.49,529.00
             293.35,542.13 293.58,548.61 279.00,555.15
             275.03,556.94 272.52,558.64 268.00,557.31
             260.77,555.19 253.23,550.02 250.08,543.00
             250.08,543.00 248.22,537.00 248.22,537.00
             246.69,532.63 245.44,530.98 246.34,526.00
             247.91,517.33 257.69,500.99 262.29,493.00
             262.29,493.00 265.49,485.42 265.49,485.42
             265.49,485.42 274.32,468.00 274.32,468.00
             274.32,468.00 282.32,453.00 282.32,453.00
             282.32,453.00 290.75,436.83 290.75,436.83
             291.88,434.76 293.83,431.57 293.27,429.17
             292.80,427.10 288.90,423.38 287.34,421.73
             287.34,421.73 278.00,413.34 278.00,413.34
             278.00,413.34 267.99,403.00 267.99,403.00
             267.99,403.00 252.63,388.37 252.63,388.37
             252.63,388.37 238.96,374.08 238.96,374.08
             233.95,369.37 232.59,369.58 226.92,363.21
             226.92,363.21 214.56,348.17 214.56,348.17
             214.56,348.17 208.33,341.56 208.33,341.56
             204.83,336.90 206.48,336.11 201.00,331.00
             201.16,325.70 196.62,314.82 197.32,306.00
             198.66,289.25 203.93,280.81 209.60,265.83
             209.60,265.83 222.58,232.00 222.58,232.00
             222.58,232.00 237.63,193.00 237.63,193.00
             238.69,190.13 242.78,181.51 242.58,179.11
             242.28,175.34 238.76,175.83 235.99,176.01
             229.43,176.46 228.91,178.30 224.00,178.87
             219.45,179.40 214.27,178.18 210.02,180.31
             204.39,183.13 203.85,188.09 201.33,193.00
             196.45,202.54 187.07,216.25 184.00,226.00
             184.00,226.00 181.00,225.00 181.00,225.00
             181.63,234.34 173.90,243.89 165.00,246.46 Z
           M 443.00,124.00
           C 443.00,124.00 444.00,125.00 444.00,125.00
             444.00,125.00 444.00,124.00 444.00,124.00
             444.00,124.00 443.00,124.00 443.00,124.00 Z
           M 252.00,168.00
           C 252.00,168.00 253.00,169.00 253.00,169.00
             253.00,169.00 253.00,168.00 253.00,168.00
             253.00,168.00 252.00,168.00 252.00,168.00 Z
           M 255.00,175.00
           C 255.00,175.00 256.00,176.00 256.00,176.00
             256.00,176.00 256.00,175.00 256.00,175.00
             256.00,175.00 255.00,175.00 255.00,175.00 Z
           M 333.00,195.00
           C 333.00,195.00 334.00,196.00 334.00,196.00
             334.00,196.00 334.00,195.00 334.00,195.00
             334.00,195.00 333.00,195.00 333.00,195.00 Z
           M 276.00,307.00
           C 276.00,307.00 277.00,308.00 277.00,308.00
             277.00,308.00 277.00,307.00 277.00,307.00
             277.00,307.00 276.00,307.00 276.00,307.00 Z
           M 219.04,382.99
           C 224.53,388.56 231.61,392.78 235.00,400.00
             230.20,404.24 231.16,405.75 227.88,410.42
             227.88,410.42 214.29,431.99 214.29,431.99
             214.29,431.99 209.67,438.28 209.67,438.28
             209.67,438.28 206.19,444.83 206.19,444.83
             206.19,444.83 186.56,473.58 186.56,473.58
             186.56,473.58 175.66,487.00 175.66,487.00
             175.66,487.00 166.34,499.79 166.34,499.79
             166.34,499.79 156.28,511.00 156.28,511.00
             156.28,511.00 142.24,529.00 142.24,529.00
             142.24,529.00 121.13,555.00 121.13,555.00
             117.06,559.74 113.03,564.76 107.00,567.10
             103.90,568.31 98.43,568.06 95.00,568.00
             87.34,567.86 80.01,562.02 76.93,555.00
             76.93,555.00 75.46,549.00 75.46,549.00
             74.57,546.01 73.08,544.43 73.16,541.00
             73.23,538.11 74.38,536.54 75.20,534.00
             75.20,534.00 76.93,527.04 76.93,527.04
             78.02,524.63 85.29,516.47 87.47,513.83
             87.47,513.83 104.00,493.00 104.00,493.00
             104.00,493.00 105.00,493.00 105.00,493.00
             105.00,493.00 107.00,495.00 107.00,495.00
             107.00,495.00 108.00,494.00 108.00,494.00
             108.00,494.00 106.00,489.00 106.00,489.00
             106.00,489.00 123.47,469.85 123.47,469.85
             123.47,469.85 137.49,452.99 137.49,452.99
             137.49,452.99 151.13,428.00 151.13,428.00
             151.13,428.00 174.15,384.83 174.15,384.83
             174.15,384.83 192.00,352.00 192.00,352.00
             192.00,352.00 219.04,382.99 219.04,382.99 Z
           M 306.00,371.00
           C 306.00,371.00 307.00,372.00 307.00,372.00
             307.00,372.00 307.00,371.00 307.00,371.00
             307.00,371.00 306.00,371.00 306.00,371.00 Z
           M 213.00,388.00
           C 213.00,388.00 214.00,389.00 214.00,389.00
             214.00,389.00 214.00,388.00 214.00,388.00
             214.00,388.00 213.00,388.00 213.00,388.00 Z
           M 213.00,406.00
           C 213.00,406.00 214.00,407.00 214.00,407.00
             214.00,407.00 214.00,406.00 214.00,406.00
             214.00,406.00 213.00,406.00 213.00,406.00 Z
           M 321.00,466.00
           C 321.00,466.00 322.00,467.00 322.00,467.00
             322.00,467.00 322.00,466.00 322.00,466.00
             322.00,466.00 321.00,466.00 321.00,466.00 Z
           M 133.00,469.00
           C 133.00,469.00 134.00,470.00 134.00,470.00
             134.00,470.00 134.00,469.00 134.00,469.00
             134.00,469.00 133.00,469.00 133.00,469.00 Z
           M 124.00,479.00
           C 124.00,479.00 125.00,480.00 125.00,480.00
             125.00,480.00 125.00,479.00 125.00,479.00
             125.00,479.00 124.00,479.00 124.00,479.00 Z
           M 145.00,520.00
           C 145.00,520.00 146.00,521.00 146.00,521.00
             146.00,521.00 146.00,520.00 146.00,520.00
             146.00,520.00 145.00,520.00 145.00,520.00 Z
           M 300.00,520.00
           C 300.00,520.00 301.00,521.00 301.00,521.00
             301.00,521.00 301.00,520.00 301.00,520.00
             301.00,520.00 300.00,520.00 300.00,520.00 Z" />
                                       <text x="60.60" y="700.40" fill="yellow" id="text" class="text">Activities</text>

</svg>
