<?xml version="1.0" encoding="UTF-8" standalone="no"?>
<!DOCTYPE svg PUBLIC "-//W3C//DTD SVG 20010904//EN"
              "http://www.w3.org/TR/2001/REC-SVG-20010904/DTD/svg10.dtd">

<svg xmlns="http://www.w3.org/2000/svg"
     width="9.56944in" height="7.79167in"
     viewBox="0 0 689 561">
     <style>
    #text{
    font: italic 112px serif; fill: white;

}
  </style>
  <path id="Selection"
        fill="white" stroke="white" stroke-width="1"
        d="M 126.00,17.63
           C 130.44,19.17 145.43,31.41 150.00,35.00
             156.66,40.23 172.82,50.25 175.06,58.00
             177.23,65.56 168.50,82.53 165.28,90.00
             165.28,90.00 134.60,165.00 134.60,165.00
             134.60,165.00 122.00,196.00 122.00,196.00
             118.70,204.25 116.67,210.81 106.00,209.89
             100.11,209.39 86.53,199.64 81.00,196.00
             81.00,196.00 60.00,182.31 60.00,182.31
             56.18,179.84 51.83,177.38 50.01,172.99
             46.47,164.47 53.76,152.89 57.15,145.00
             57.15,145.00 87.72,76.00 87.72,76.00
             87.72,76.00 106.30,34.00 106.30,34.00
             109.64,26.60 110.73,20.51 119.00,17.63
             121.65,17.12 123.35,16.82 126.00,17.63 Z
           M 584.25,39.00
           C 584.25,39.00 600.24,70.00 600.24,70.00
             600.24,70.00 622.75,114.00 622.75,114.00
             622.75,114.00 637.31,143.00 637.31,143.00
             637.31,143.00 646.75,161.00 646.75,161.00
             648.41,164.35 650.52,168.12 649.55,171.99
             648.62,175.72 644.82,178.38 642.00,180.75
             642.00,180.75 625.00,195.00 625.00,195.00
             625.00,195.00 605.00,211.79 605.00,211.79
             601.95,214.17 598.19,217.44 594.02,216.53
             588.96,215.43 586.37,208.17 584.00,204.00
             584.00,204.00 564.00,166.00 564.00,166.00
             564.00,166.00 534.00,109.00 534.00,109.00
             534.00,109.00 525.69,93.00 525.69,93.00
             524.02,89.88 521.21,85.65 521.41,82.00
             521.69,77.03 529.52,70.48 533.00,67.00
             533.00,67.00 558.00,41.00 558.00,41.00
             562.07,36.93 565.86,32.42 571.00,29.74
             579.24,27.96 581.00,32.54 584.25,39.00 Z
           M 500.42,198.00
           C 495.81,192.08 483.72,176.00 478.91,171.80
             460.40,155.66 430.42,137.82 406.00,133.46
             398.78,132.17 391.31,131.97 384.00,132.00
             384.00,132.00 355.00,134.00 355.00,134.00
             341.22,134.02 332.79,134.29 319.00,131.11
             319.00,131.11 297.10,124.84 297.10,124.84
             293.97,124.93 292.00,128.79 289.90,130.91
             286.71,134.11 282.01,137.12 278.00,139.22
             263.97,146.55 249.52,148.18 234.00,148.00
             226.33,147.91 219.56,146.13 213.00,142.07
             210.64,140.61 206.94,138.36 208.15,135.05
             208.90,133.03 215.13,127.80 217.01,125.96
             217.01,125.96 237.00,105.00 237.00,105.00
             237.00,105.00 260.95,78.00 260.95,78.00
             270.02,67.78 271.62,63.02 286.00,63.00
             286.00,63.00 376.00,63.00 376.00,63.00
             376.00,63.00 391.00,64.00 391.00,64.00
             391.00,64.00 416.00,64.00 416.00,64.00
             426.37,64.05 432.32,70.05 440.00,76.43
             453.01,87.25 459.72,94.88 475.00,103.57
             480.34,106.61 489.79,110.43 496.00,109.80
             506.23,108.76 509.49,97.38 518.00,93.00
             518.00,93.00 532.22,120.00 532.22,120.00
             532.22,120.00 566.25,185.00 566.25,185.00
             566.25,185.00 577.76,207.00 577.76,207.00
             577.76,207.00 580.71,215.96 580.71,215.96
             580.71,215.96 570.00,226.08 570.00,226.08
             570.00,226.08 541.00,249.00 541.00,249.00
             541.00,249.00 500.42,198.00 500.42,198.00 Z
           M 209.00,90.67
           C 209.00,90.67 227.00,104.00 227.00,104.00
             227.00,104.00 208.00,123.42 208.00,123.42
             205.45,125.64 198.20,131.96 197.44,135.00
             196.41,139.10 202.19,143.94 205.00,146.18
             216.04,154.98 227.26,157.16 241.00,157.00
             254.89,156.83 270.73,152.09 283.00,145.74
             292.69,140.73 295.16,135.70 299.00,134.92
             301.21,134.48 306.59,136.46 309.00,137.14
             309.00,137.14 329.00,141.74 329.00,141.74
             342.89,143.63 354.17,142.86 368.00,141.74
             368.00,141.74 378.00,141.00 378.00,141.00
             387.71,140.89 397.44,140.52 407.00,142.45
             427.68,146.61 458.87,163.73 473.99,178.09
             473.99,178.09 512.60,226.00 512.60,226.00
             512.60,226.00 534.60,254.00 534.60,254.00
             539.86,260.60 545.57,268.01 544.81,277.00
             543.41,293.68 523.44,306.86 508.00,298.25
             502.45,295.15 498.45,288.96 494.58,284.00
             494.58,284.00 476.42,261.00 476.42,261.00
             476.42,261.00 438.00,213.00 438.00,213.00
             436.66,214.64 434.35,216.80 434.44,219.04
             434.53,221.21 437.11,224.30 438.42,226.00
             438.42,226.00 449.58,240.00 449.58,240.00
             449.58,240.00 482.60,282.00 482.60,282.00
             489.32,290.40 496.62,297.40 495.91,309.00
             494.79,327.14 472.35,339.56 458.09,329.87
             453.58,326.80 440.53,309.41 436.20,304.00
             436.20,304.00 406.40,266.00 406.40,266.00
             401.85,260.31 392.75,250.09 390.00,244.00
             390.00,244.00 383.00,248.00 383.00,248.00
             385.60,254.10 394.53,264.41 399.00,270.00
             399.00,270.00 427.21,306.00 427.21,306.00
             435.06,315.97 443.31,322.58 442.99,336.00
             442.67,349.08 429.44,361.94 416.00,360.81
             404.34,359.83 398.64,350.30 392.00,342.00
             392.00,342.00 360.58,302.00 360.58,302.00
             355.56,295.57 348.64,288.07 345.00,281.00
             343.08,282.15 340.11,283.59 339.76,286.09
             339.46,288.19 341.42,290.43 342.59,292.00
             342.59,292.00 352.79,305.00 352.79,305.00
             352.79,305.00 374.42,333.00 374.42,333.00
             382.56,343.46 390.51,351.82 385.05,366.00
             379.20,381.17 359.02,388.55 346.17,377.47
             344.20,375.77 340.61,371.52 339.99,369.00
             339.15,365.53 342.22,362.50 344.20,360.00
             347.88,355.36 354.13,348.16 356.48,343.00
             364.76,324.86 351.74,303.86 334.00,297.55
             329.58,295.97 326.56,296.01 322.00,296.00
             326.52,287.43 334.92,281.01 336.67,271.00
             337.71,265.10 336.98,257.46 334.48,252.00
             329.62,241.37 314.36,229.16 302.00,230.19
             302.00,230.19 293.00,232.00 293.00,232.00
             293.00,224.78 293.12,220.78 289.87,214.00
             286.98,207.97 284.05,205.10 279.00,200.92
             269.09,192.73 259.13,189.58 247.00,195.33
             234.50,201.25 229.73,214.41 220.00,222.00
             218.02,216.72 217.21,212.81 213.78,208.04
             203.05,193.11 183.82,185.21 168.00,197.53
             163.58,200.97 157.26,209.33 153.42,214.00
             151.71,216.08 148.67,220.62 145.91,220.99
             143.75,221.28 140.81,219.27 139.00,218.20
             139.00,218.20 124.00,209.00 124.00,209.00
             124.00,209.00 180.00,72.00 180.00,72.00
             180.00,72.00 209.00,90.67 209.00,90.67 Z
           M 210.67,231.00
           C 209.57,237.19 204.82,242.30 200.92,247.00
             200.92,247.00 180.80,272.00 180.80,272.00
             176.05,277.93 171.83,283.66 164.00,285.47
             147.67,289.25 130.67,272.37 133.81,256.00
             135.29,248.31 139.46,243.93 144.20,238.00
             144.20,238.00 161.20,217.00 161.20,217.00
             167.66,208.93 170.62,203.60 181.00,200.53
             198.41,197.70 213.77,213.65 210.67,231.00 Z
           M 282.87,236.00
           C 280.73,241.67 268.68,255.44 264.20,261.00
             264.20,261.00 223.75,311.00 223.75,311.00
             215.67,320.78 211.22,329.58 197.00,328.96
             185.22,328.44 173.34,316.87 173.02,305.00
             172.62,290.80 181.28,284.25 189.75,274.00
             189.75,274.00 230.60,223.00 230.60,223.00
             237.92,213.86 243.02,204.32 255.00,201.47
             273.45,198.95 289.60,218.24 282.87,236.00 Z
           M 328.90,263.00
           C 329.77,275.63 320.45,283.96 313.20,293.00
             313.20,293.00 268.00,349.00 268.00,349.00
             260.44,358.41 254.57,367.85 241.00,366.90
             227.41,365.95 211.54,349.09 218.88,332.00
             221.81,325.18 231.07,315.19 236.00,309.00
             236.00,309.00 273.20,263.00 273.20,263.00
             280.23,254.28 286.76,242.89 298.00,239.53
             312.47,237.17 327.87,247.96 328.90,263.00 Z
           M 332.00,305.66
           C 341.34,308.62 349.99,319.21 350.81,329.00
             351.63,338.77 346.04,344.94 340.40,352.00
             340.40,352.00 319.40,378.00 319.40,378.00
             314.13,384.57 311.63,388.09 303.00,390.10
             288.98,393.36 273.65,379.93 273.04,366.00
             272.55,354.91 277.67,350.16 284.20,342.00
             284.20,342.00 302.00,320.00 302.00,320.00
             307.56,313.08 310.09,308.31 319.00,305.66
             323.10,304.86 327.98,304.58 332.00,305.66 Z" />
                          <text x="120.60" y="520.40" fill="yellow" id="text" class="text">Associations</text>

</svg>
