<?xml version="1.0" encoding="UTF-8" standalone="no"?>
<!DOCTYPE svg PUBLIC "-//W3C//DTD SVG 20010904//EN"
              "http://www.w3.org/TR/2001/REC-SVG-20010904/DTD/svg10.dtd">

<svg xmlns="http://www.w3.org/2000/svg"
     width="11.5in" height="11.2222in"
     viewBox="0 0 828 808">
     <style>
    #text{
    font: italic 128px serif; fill: white;

}
  </style>
  <path id="Selection"
        fill="white" stroke="white" stroke-width="1"
        d="M 373.00,119.91
           C 356.29,113.89 346.20,95.15 346.00,78.00
             345.92,70.39 347.37,63.29 349.57,56.00
             356.34,33.51 375.11,13.81 398.00,7.75
             405.60,5.74 412.25,5.91 420.00,6.00
             452.92,6.39 475.58,35.71 486.05,64.00
             486.05,64.00 492.15,89.96 492.15,89.96
             493.75,94.34 498.51,96.10 502.00,99.18
             507.04,103.65 511.47,109.76 514.05,116.00
             525.10,142.70 511.86,169.06 493.00,188.00
             487.89,193.13 482.65,198.92 476.00,202.00
             478.07,206.45 481.39,213.31 482.47,218.00
             487.51,239.84 478.58,259.62 461.96,273.92
             451.70,282.75 430.61,290.68 417.00,289.91
             406.74,289.33 396.90,286.22 388.00,281.13
             380.79,277.01 373.97,271.39 370.00,263.77
             356.37,275.49 343.55,274.62 330.00,263.77
             325.09,259.52 314.48,248.41 307.17,250.69
             305.97,251.06 295.74,259.04 294.98,260.21
             294.98,260.21 290.60,273.00 290.60,273.00
             284.75,285.45 271.26,302.07 256.00,295.00
             255.68,298.54 253.49,309.00 250.57,310.98
             248.14,312.62 236.49,312.01 233.00,312.00
             231.06,312.00 227.28,312.25 225.74,311.01
             224.10,309.68 224.03,306.92 224.05,305.00
             224.12,300.09 225.41,292.57 227.20,288.00
             229.00,283.42 231.29,278.85 234.38,275.00
             236.34,272.55 240.56,268.80 241.75,266.58
             241.75,266.58 244.44,255.00 244.44,255.00
             247.80,245.50 249.67,246.17 253.45,240.00
             255.67,236.38 255.53,232.69 257.84,229.00
             263.29,220.32 273.76,218.75 283.00,221.00
             283.12,207.95 288.19,200.16 300.00,194.37
             300.00,194.37 311.00,190.57 311.00,190.57
             315.69,188.37 320.90,181.67 331.00,178.79
             332.97,178.23 337.87,177.65 340.00,177.51
             361.50,176.11 377.79,189.79 392.00,204.00
             397.58,193.61 405.55,191.24 415.00,186.00
             408.99,184.87 403.67,181.57 399.00,177.68
             381.89,163.40 378.35,142.23 386.00,122.00
             380.86,121.95 377.92,121.68 373.00,119.91 Z
           M 257.00,317.00
           C 257.00,317.00 257.00,401.00 257.00,401.00
             257.00,401.00 313.00,401.00 313.00,401.00
             313.00,401.00 313.00,368.00 313.00,368.00
             313.00,365.44 312.88,362.44 313.70,360.00
             319.40,343.14 347.18,340.22 358.79,352.18
             363.94,357.50 364.99,362.97 365.00,370.00
             365.00,370.00 365.00,401.00 365.00,401.00
             365.00,401.00 395.00,401.00 395.00,401.00
             395.00,401.00 395.00,375.00 395.00,375.00
             395.21,363.67 402.27,365.97 416.00,366.00
             418.77,366.01 422.44,365.71 424.69,367.60
             427.38,369.87 426.99,373.82 427.00,377.00
             427.00,377.00 427.00,401.00 427.00,401.00
             427.00,401.00 470.00,401.00 470.00,401.00
             470.00,401.00 470.00,345.00 470.00,345.00
             470.00,345.00 635.00,345.00 635.00,345.00
             635.00,345.00 635.00,369.00 635.00,369.00
             635.00,369.00 604.00,369.00 604.00,369.00
             604.00,369.00 604.00,414.00 604.00,414.00
             604.00,414.00 673.00,414.00 673.00,414.00
             673.00,414.00 673.00,541.00 673.00,541.00
             673.00,541.00 707.00,541.00 707.00,541.00
             707.00,541.00 707.00,573.00 707.00,573.00
             707.00,573.00 567.00,573.00 567.00,573.00
             564.30,590.53 554.39,600.50 539.00,608.00
             539.00,608.00 731.00,608.00 731.00,608.00
             731.00,608.00 731.00,631.00 731.00,631.00
             731.00,631.00 100.00,631.00 100.00,631.00
             100.00,631.00 100.00,608.00 100.00,608.00
             100.00,608.00 153.00,608.00 153.00,608.00
             153.00,608.00 181.00,607.00 181.00,607.00
             165.65,603.24 160.01,587.13 160.00,573.00
             160.00,573.00 108.00,573.00 108.00,573.00
             108.00,573.00 108.00,541.00 108.00,541.00
             108.00,541.00 141.00,541.00 141.00,541.00
             141.00,541.00 141.00,503.00 141.00,503.00
             141.00,503.00 192.00,503.00 192.00,503.00
             191.75,495.03 189.61,493.89 186.92,487.00
             184.77,481.49 182.07,470.89 182.00,465.00
             181.78,446.13 180.96,438.03 188.58,420.00
             189.77,417.18 191.33,414.00 191.79,411.00
             192.23,408.11 191.43,403.76 193.60,401.60
             195.52,399.68 199.46,400.01 202.00,400.00
             202.00,400.00 218.00,400.00 218.00,400.00
             218.00,400.00 218.00,317.00 218.00,317.00
             218.00,317.00 257.00,317.00 257.00,317.00 Z
           M 523.00,367.00
           C 523.00,367.00 523.00,442.00 523.00,442.00
             523.00,442.00 577.00,442.00 577.00,442.00
             577.00,442.00 577.00,367.00 577.00,367.00
             577.00,367.00 523.00,367.00 523.00,367.00 Z
           M 367.56,532.00
           C 354.68,512.09 328.07,504.22 307.00,515.90
             303.45,517.87 298.03,522.12 295.30,525.09
             289.84,531.01 290.72,534.69 282.00,535.00
             282.00,535.00 282.00,511.00 282.00,511.00
             282.00,511.00 262.00,511.00 262.00,511.00
             262.00,511.00 256.02,512.60 256.02,512.60
             256.02,512.60 255.00,520.00 255.00,520.00
             255.00,520.00 275.00,521.00 275.00,521.00
             273.61,525.91 273.97,530.93 274.00,536.00
             274.01,538.33 273.75,542.40 275.74,544.01
             277.18,545.17 280.22,544.99 282.00,545.00
             284.71,545.02 289.49,545.32 291.79,543.98
             295.17,542.01 297.44,535.13 304.04,529.46
             313.02,521.76 324.24,518.25 336.00,520.47
             343.99,521.97 351.46,527.15 356.91,533.00
             366.13,542.92 361.29,544.95 373.00,545.00
             372.11,539.34 370.66,536.78 367.56,532.00 Z
           M 393.30,526.00
           C 388.72,531.29 384.75,536.93 384.00,544.00
             395.31,545.89 390.80,540.43 402.01,530.17
             410.30,522.59 417.95,519.87 429.00,520.00
             438.48,520.11 447.29,524.37 453.96,531.04
             462.87,539.95 461.20,547.03 472.00,544.00
             462.14,509.43 416.95,498.69 393.30,526.00 Z
           M 489.67,544.43
           C 493.38,542.79 493.56,538.12 501.01,531.09
             507.64,524.85 515.92,521.13 525.00,520.51
             539.86,519.50 554.18,530.19 560.62,543.00
             563.24,548.20 565.63,559.89 566.17,560.69
             566.93,561.81 567.79,562.36 569.10,562.67
             575.45,564.18 575.12,558.15 574.38,554.00
             572.70,544.57 568.97,535.69 563.24,528.00
             544.16,502.38 506.23,504.25 488.04,530.00
             484.75,534.66 482.06,539.36 481.00,545.00
             483.11,545.00 487.90,545.21 489.67,544.43 Z
           M 174.00,535.53
           C 163.13,541.77 156.46,552.96 154.00,565.00
             164.80,568.04 161.38,561.77 168.38,553.00
             173.77,546.24 181.14,540.76 190.00,540.09
             198.63,539.44 206.78,543.12 212.83,549.17
             221.60,557.95 216.62,560.95 229.00,561.00
             223.31,536.76 196.31,522.71 174.00,535.53 Z
           M 293.31,587.00
           C 293.31,587.00 287.27,573.99 287.27,573.99
             285.43,572.54 278.51,573.00 276.00,573.00
             276.00,578.24 277.22,590.92 273.57,594.57
             270.78,597.36 266.62,596.99 263.00,597.00
             263.00,597.00 241.00,597.00 241.00,597.00
             237.46,596.95 233.98,596.86 231.60,593.77
             229.09,590.52 230.00,579.39 230.00,575.00
             230.00,575.00 224.00,575.00 224.00,575.00
             225.13,585.18 219.39,595.16 211.99,601.82
             211.99,601.82 204.00,608.00 204.00,608.00
             204.00,608.00 281.00,608.00 281.00,608.00
             281.00,608.00 303.00,608.00 303.00,608.00
             303.00,608.00 316.00,607.00 316.00,607.00
             306.84,604.11 297.90,595.29 293.31,587.00 Z
           M 369.00,573.00
           C 369.20,583.35 358.96,596.27 351.00,602.07
             351.00,602.07 341.00,608.00 341.00,608.00
             341.00,608.00 391.00,608.00 391.00,608.00
             391.00,608.00 415.00,607.00 415.00,607.00
             400.01,602.62 389.96,587.67 387.00,573.00
             387.00,573.00 369.00,573.00 369.00,573.00 Z
           M 468.00,573.00
           C 466.08,585.24 458.22,596.56 448.00,603.40
             448.00,603.40 440.00,608.00 440.00,608.00
             440.00,608.00 490.00,608.00 490.00,608.00
             490.00,608.00 514.00,607.00 514.00,607.00
             499.49,602.85 488.08,587.66 486.00,573.00
             486.00,573.00 468.00,573.00 468.00,573.00 Z" />
                          <text x="140.60" y="760.40" fill="yellow" id="text" class="text">Conveyance</text>

</svg>
